<mxfile host="app.diagrams.net" modified="2023-04-28T09:31:00.909Z" agent="Mozilla/5.0 (Windows NT 10.0; Win64; x64) AppleWebKit/537.36 (KHTML, like Gecko) Chrome/112.0.0.0 Safari/537.36" etag="9XU7N0Y82Z4KwnafzsJi" version="21.2.1" type="github">
  <diagram name="第 1 页" id="mniUiiSoPbnkiGQSMimY">
    <mxGraphModel dx="2206" dy="1175" grid="1" gridSize="10" guides="1" tooltips="1" connect="1" arrows="1" fold="1" page="1" pageScale="1" pageWidth="827" pageHeight="1169" math="0" shadow="0">
      <root>
        <mxCell id="0" />
        <mxCell id="1" parent="0" />
        <mxCell id="UMFmBSXivluhDXqMdhv--41" value="" style="rounded=1;whiteSpace=wrap;html=1;arcSize=5;fillColor=none;dashed=1;" vertex="1" parent="1">
          <mxGeometry x="501" y="260" width="870" height="495" as="geometry" />
        </mxCell>
        <mxCell id="UMFmBSXivluhDXqMdhv--40" value="" style="rounded=1;whiteSpace=wrap;html=1;fillColor=none;dashed=1;" vertex="1" parent="1">
          <mxGeometry x="510" y="70" width="850" height="140" as="geometry" />
        </mxCell>
        <mxCell id="UMFmBSXivluhDXqMdhv--1" value="" style="rounded=0;whiteSpace=wrap;html=1;" vertex="1" parent="1">
          <mxGeometry x="210" y="180" width="170" height="320" as="geometry" />
        </mxCell>
        <mxCell id="UMFmBSXivluhDXqMdhv--2" value="&lt;font style=&quot;&quot;&gt;&lt;span style=&quot;font-size: 24px;&quot;&gt;Table A&lt;/span&gt;&lt;br&gt;&lt;font style=&quot;font-size: 14px;&quot;&gt;3 replications&lt;/font&gt;&lt;br&gt;&lt;/font&gt;" style="text;html=1;strokeColor=none;fillColor=none;align=center;verticalAlign=middle;whiteSpace=wrap;rounded=0;" vertex="1" parent="1">
          <mxGeometry x="210" y="190" width="170" height="60" as="geometry" />
        </mxCell>
        <mxCell id="UMFmBSXivluhDXqMdhv--3" value="&lt;font style=&quot;font-size: 24px;&quot;&gt;Tablet 1&lt;br&gt;&lt;/font&gt;" style="rounded=1;whiteSpace=wrap;html=1;strokeColor=#b4a996;fillColor=#d7d7d8;" vertex="1" parent="1">
          <mxGeometry x="220" y="260" width="150" height="60" as="geometry" />
        </mxCell>
        <mxCell id="UMFmBSXivluhDXqMdhv--4" value="&lt;font style=&quot;font-size: 24px;&quot;&gt;Tablet 2&lt;br&gt;&lt;/font&gt;" style="rounded=1;whiteSpace=wrap;html=1;strokeColor=#B4A996;fillColor=#56a0d3;" vertex="1" parent="1">
          <mxGeometry x="220" y="340" width="150" height="60" as="geometry" />
        </mxCell>
        <mxCell id="UMFmBSXivluhDXqMdhv--5" value="&lt;font style=&quot;font-size: 24px;&quot;&gt;Tablet 3&lt;br&gt;&lt;/font&gt;" style="rounded=1;whiteSpace=wrap;html=1;strokeColor=#b4a996;fillColor=#8ec06c;" vertex="1" parent="1">
          <mxGeometry x="220" y="420" width="150" height="60" as="geometry" />
        </mxCell>
        <mxCell id="UMFmBSXivluhDXqMdhv--6" value="" style="rounded=0;whiteSpace=wrap;html=1;" vertex="1" parent="1">
          <mxGeometry x="210" y="535" width="170" height="160" as="geometry" />
        </mxCell>
        <mxCell id="UMFmBSXivluhDXqMdhv--7" value="&lt;font style=&quot;&quot;&gt;&lt;span style=&quot;font-size: 24px;&quot;&gt;Table B&lt;/span&gt;&lt;br&gt;&lt;font style=&quot;font-size: 14px;&quot;&gt;2 replications&lt;/font&gt;&lt;br&gt;&lt;/font&gt;" style="text;html=1;strokeColor=none;fillColor=none;align=center;verticalAlign=middle;whiteSpace=wrap;rounded=0;" vertex="1" parent="1">
          <mxGeometry x="210" y="545" width="170" height="60" as="geometry" />
        </mxCell>
        <mxCell id="UMFmBSXivluhDXqMdhv--8" value="&lt;font style=&quot;font-size: 24px;&quot;&gt;Tablet 4&lt;br&gt;&lt;/font&gt;" style="rounded=1;whiteSpace=wrap;html=1;strokeColor=#b4a996;fillColor=#ecb731;" vertex="1" parent="1">
          <mxGeometry x="220" y="615" width="150" height="60" as="geometry" />
        </mxCell>
        <mxCell id="UMFmBSXivluhDXqMdhv--9" value="" style="rounded=0;whiteSpace=wrap;html=1;" vertex="1" parent="1">
          <mxGeometry x="540" y="315" width="170" height="400" as="geometry" />
        </mxCell>
        <mxCell id="UMFmBSXivluhDXqMdhv--10" value="&lt;font style=&quot;&quot;&gt;&lt;span style=&quot;font-size: 24px;&quot;&gt;BE 1&lt;/span&gt;&lt;br&gt;&lt;/font&gt;" style="text;html=1;strokeColor=none;fillColor=none;align=center;verticalAlign=middle;whiteSpace=wrap;rounded=0;" vertex="1" parent="1">
          <mxGeometry x="540" y="325" width="170" height="60" as="geometry" />
        </mxCell>
        <mxCell id="UMFmBSXivluhDXqMdhv--11" value="&lt;font style=&quot;font-size: 24px;&quot;&gt;Tablet 1&lt;br&gt;R1&lt;br&gt;&lt;/font&gt;" style="rounded=1;whiteSpace=wrap;html=1;strokeColor=#b4a996;fillColor=#d7d7d8;" vertex="1" parent="1">
          <mxGeometry x="550" y="390" width="150" height="65" as="geometry" />
        </mxCell>
        <mxCell id="UMFmBSXivluhDXqMdhv--12" value="&lt;font style=&quot;font-size: 24px;&quot;&gt;Tablet 2&lt;br&gt;R1&lt;br&gt;&lt;/font&gt;" style="rounded=1;whiteSpace=wrap;html=1;strokeColor=#B4A996;fillColor=#56a0d3;" vertex="1" parent="1">
          <mxGeometry x="550" y="470" width="150" height="65" as="geometry" />
        </mxCell>
        <mxCell id="UMFmBSXivluhDXqMdhv--13" value="" style="rounded=0;whiteSpace=wrap;html=1;" vertex="1" parent="1">
          <mxGeometry x="750" y="315" width="170" height="400" as="geometry" />
        </mxCell>
        <mxCell id="UMFmBSXivluhDXqMdhv--14" value="&lt;font style=&quot;&quot;&gt;&lt;span style=&quot;font-size: 24px;&quot;&gt;BE 2&lt;/span&gt;&lt;br&gt;&lt;/font&gt;" style="text;html=1;strokeColor=none;fillColor=none;align=center;verticalAlign=middle;whiteSpace=wrap;rounded=0;" vertex="1" parent="1">
          <mxGeometry x="750" y="325" width="170" height="60" as="geometry" />
        </mxCell>
        <mxCell id="UMFmBSXivluhDXqMdhv--15" value="&lt;font style=&quot;font-size: 24px;&quot;&gt;Tablet 1&lt;br&gt;R2&lt;br&gt;&lt;/font&gt;" style="rounded=1;whiteSpace=wrap;html=1;strokeColor=#b4a996;fillColor=#d7d7d8;" vertex="1" parent="1">
          <mxGeometry x="760" y="390" width="150" height="65" as="geometry" />
        </mxCell>
        <mxCell id="UMFmBSXivluhDXqMdhv--16" value="&lt;font style=&quot;font-size: 24px;&quot;&gt;Tablet 3&lt;br&gt;R1&lt;br&gt;&lt;/font&gt;" style="rounded=1;whiteSpace=wrap;html=1;strokeColor=#b4a996;fillColor=#8ec06c;" vertex="1" parent="1">
          <mxGeometry x="760" y="470" width="150" height="65" as="geometry" />
        </mxCell>
        <mxCell id="UMFmBSXivluhDXqMdhv--17" value="" style="rounded=0;whiteSpace=wrap;html=1;" vertex="1" parent="1">
          <mxGeometry x="960" y="315" width="170" height="400" as="geometry" />
        </mxCell>
        <mxCell id="UMFmBSXivluhDXqMdhv--18" value="&lt;font style=&quot;&quot;&gt;&lt;span style=&quot;font-size: 24px;&quot;&gt;BE 3&lt;/span&gt;&lt;br&gt;&lt;/font&gt;" style="text;html=1;strokeColor=none;fillColor=none;align=center;verticalAlign=middle;whiteSpace=wrap;rounded=0;" vertex="1" parent="1">
          <mxGeometry x="960" y="325" width="170" height="60" as="geometry" />
        </mxCell>
        <mxCell id="UMFmBSXivluhDXqMdhv--19" value="&lt;font style=&quot;font-size: 24px;&quot;&gt;Tablet 1&lt;br&gt;R3&lt;br&gt;&lt;/font&gt;" style="rounded=1;whiteSpace=wrap;html=1;strokeColor=#b4a996;fillColor=#d7d7d8;" vertex="1" parent="1">
          <mxGeometry x="970" y="390" width="150" height="65" as="geometry" />
        </mxCell>
        <mxCell id="UMFmBSXivluhDXqMdhv--20" value="&lt;font style=&quot;font-size: 24px;&quot;&gt;Tablet 2&lt;br&gt;R2&lt;br&gt;&lt;/font&gt;" style="rounded=1;whiteSpace=wrap;html=1;strokeColor=#B4A996;fillColor=#56a0d3;" vertex="1" parent="1">
          <mxGeometry x="970" y="470" width="150" height="65" as="geometry" />
        </mxCell>
        <mxCell id="UMFmBSXivluhDXqMdhv--21" value="&lt;font style=&quot;font-size: 24px;&quot;&gt;Tablet 3&lt;br&gt;R3&lt;br&gt;&lt;/font&gt;" style="rounded=1;whiteSpace=wrap;html=1;strokeColor=#b4a996;fillColor=#8ec06c;" vertex="1" parent="1">
          <mxGeometry x="970" y="550" width="150" height="65" as="geometry" />
        </mxCell>
        <mxCell id="UMFmBSXivluhDXqMdhv--22" value="" style="rounded=0;whiteSpace=wrap;html=1;" vertex="1" parent="1">
          <mxGeometry x="1170" y="315" width="170" height="400" as="geometry" />
        </mxCell>
        <mxCell id="UMFmBSXivluhDXqMdhv--23" value="&lt;font style=&quot;&quot;&gt;&lt;span style=&quot;font-size: 24px;&quot;&gt;BE 4&lt;/span&gt;&lt;br&gt;&lt;/font&gt;" style="text;html=1;strokeColor=none;fillColor=none;align=center;verticalAlign=middle;whiteSpace=wrap;rounded=0;" vertex="1" parent="1">
          <mxGeometry x="1170" y="325" width="170" height="60" as="geometry" />
        </mxCell>
        <mxCell id="UMFmBSXivluhDXqMdhv--24" value="&lt;font style=&quot;font-size: 24px;&quot;&gt;Tablet 2&lt;br&gt;R3&lt;br&gt;&lt;/font&gt;" style="rounded=1;whiteSpace=wrap;html=1;strokeColor=#B4A996;fillColor=#56a0d3;" vertex="1" parent="1">
          <mxGeometry x="1180" y="390" width="150" height="65" as="geometry" />
        </mxCell>
        <mxCell id="UMFmBSXivluhDXqMdhv--25" value="&lt;font style=&quot;font-size: 24px;&quot;&gt;Tablet 3&lt;br&gt;R2&lt;br&gt;&lt;/font&gt;" style="rounded=1;whiteSpace=wrap;html=1;strokeColor=#b4a996;fillColor=#8ec06c;" vertex="1" parent="1">
          <mxGeometry x="1180" y="470" width="150" height="65" as="geometry" />
        </mxCell>
        <mxCell id="UMFmBSXivluhDXqMdhv--26" value="&lt;font style=&quot;font-size: 24px;&quot;&gt;Tablet 4&lt;br&gt;R1&lt;br&gt;&lt;/font&gt;" style="rounded=1;whiteSpace=wrap;html=1;strokeColor=#b4a996;fillColor=#ecb731;" vertex="1" parent="1">
          <mxGeometry x="550" y="550" width="150" height="65" as="geometry" />
        </mxCell>
        <mxCell id="UMFmBSXivluhDXqMdhv--27" value="" style="rounded=0;whiteSpace=wrap;html=1;" vertex="1" parent="1">
          <mxGeometry x="580" y="100" width="170" height="80" as="geometry" />
        </mxCell>
        <mxCell id="UMFmBSXivluhDXqMdhv--28" value="&lt;font style=&quot;&quot;&gt;&lt;span style=&quot;font-size: 24px;&quot;&gt;FE 1&lt;br&gt;&lt;/span&gt;&lt;font style=&quot;font-size: 18px;&quot;&gt;Master&lt;/font&gt;&lt;br&gt;&lt;/font&gt;" style="text;html=1;strokeColor=none;fillColor=none;align=center;verticalAlign=middle;whiteSpace=wrap;rounded=0;" vertex="1" parent="1">
          <mxGeometry x="580" y="110" width="170" height="60" as="geometry" />
        </mxCell>
        <mxCell id="UMFmBSXivluhDXqMdhv--29" value="" style="rounded=0;whiteSpace=wrap;html=1;" vertex="1" parent="1">
          <mxGeometry x="860" y="100" width="170" height="80" as="geometry" />
        </mxCell>
        <mxCell id="UMFmBSXivluhDXqMdhv--30" value="&lt;font style=&quot;&quot;&gt;&lt;span style=&quot;font-size: 24px;&quot;&gt;FE 2&lt;br&gt;&lt;/span&gt;&lt;font style=&quot;font-size: 18px;&quot;&gt;Follower&lt;/font&gt;&lt;br&gt;&lt;/font&gt;" style="text;html=1;strokeColor=none;fillColor=none;align=center;verticalAlign=middle;whiteSpace=wrap;rounded=0;" vertex="1" parent="1">
          <mxGeometry x="860" y="110" width="170" height="60" as="geometry" />
        </mxCell>
        <mxCell id="UMFmBSXivluhDXqMdhv--31" value="" style="rounded=0;whiteSpace=wrap;html=1;" vertex="1" parent="1">
          <mxGeometry x="1130" y="100" width="170" height="80" as="geometry" />
        </mxCell>
        <mxCell id="UMFmBSXivluhDXqMdhv--32" value="&lt;font style=&quot;&quot;&gt;&lt;span style=&quot;font-size: 24px;&quot;&gt;FE 2&lt;br&gt;&lt;/span&gt;&lt;font style=&quot;font-size: 18px;&quot;&gt;Follower&lt;/font&gt;&lt;br&gt;&lt;/font&gt;" style="text;html=1;strokeColor=none;fillColor=none;align=center;verticalAlign=middle;whiteSpace=wrap;rounded=0;" vertex="1" parent="1">
          <mxGeometry x="1130" y="110" width="170" height="60" as="geometry" />
        </mxCell>
        <mxCell id="UMFmBSXivluhDXqMdhv--33" value="&lt;font style=&quot;font-size: 24px;&quot;&gt;Tablet 4&lt;br&gt;R2&lt;br&gt;&lt;/font&gt;" style="rounded=1;whiteSpace=wrap;html=1;strokeColor=#b4a996;fillColor=#ecb731;" vertex="1" parent="1">
          <mxGeometry x="760" y="550" width="150" height="65" as="geometry" />
        </mxCell>
        <mxCell id="UMFmBSXivluhDXqMdhv--34" value="&lt;font style=&quot;font-size: 14px;&quot;&gt;最大副本数取决于部署BE服务的独立IP数量，注意不是BE的数量，其原则是不允许同一个Tablet的副本分布在同一台物理机上，而识别物理机是通过IP地址&lt;/font&gt;" style="text;html=1;strokeColor=none;fillColor=none;align=left;verticalAlign=middle;whiteSpace=wrap;rounded=0;" vertex="1" parent="1">
          <mxGeometry x="280" y="790" width="520" height="70" as="geometry" />
        </mxCell>
        <mxCell id="UMFmBSXivluhDXqMdhv--35" value="&lt;font style=&quot;font-size: 24px;&quot;&gt;Tablet&lt;br&gt;&lt;/font&gt;" style="rounded=1;whiteSpace=wrap;html=1;strokeColor=#b4a996;fillColor=#8ec06c;" vertex="1" parent="1">
          <mxGeometry x="610" y="870" width="570" height="60" as="geometry" />
        </mxCell>
        <mxCell id="UMFmBSXivluhDXqMdhv--36" value="&lt;font style=&quot;font-size: 24px;&quot;&gt;Rowset1&lt;br&gt;&lt;/font&gt;" style="rounded=1;whiteSpace=wrap;html=1;strokeColor=#b4a996;fillColor=#8ec06c;" vertex="1" parent="1">
          <mxGeometry x="610" y="970" width="260" height="60" as="geometry" />
        </mxCell>
        <mxCell id="UMFmBSXivluhDXqMdhv--37" value="&lt;font style=&quot;font-size: 24px;&quot;&gt;Rowset1&lt;br&gt;&lt;/font&gt;" style="rounded=1;whiteSpace=wrap;html=1;strokeColor=#b4a996;fillColor=#8ec06c;" vertex="1" parent="1">
          <mxGeometry x="915" y="970" width="260" height="60" as="geometry" />
        </mxCell>
        <mxCell id="UMFmBSXivluhDXqMdhv--38" value="&lt;font style=&quot;font-size: 24px;&quot;&gt;Segment01&lt;br&gt;&lt;/font&gt;" style="rounded=1;whiteSpace=wrap;html=1;strokeColor=#b4a996;fillColor=#8ec06c;" vertex="1" parent="1">
          <mxGeometry x="610" y="1050" width="166" height="60" as="geometry" />
        </mxCell>
        <mxCell id="UMFmBSXivluhDXqMdhv--39" value="&lt;font style=&quot;font-size: 24px;&quot;&gt;Segment01&lt;br&gt;&lt;/font&gt;" style="rounded=1;whiteSpace=wrap;html=1;strokeColor=#b4a996;fillColor=#8ec06c;" vertex="1" parent="1">
          <mxGeometry x="920" y="1050" width="166" height="60" as="geometry" />
        </mxCell>
      </root>
    </mxGraphModel>
  </diagram>
</mxfile>
